<svg id="图层_1" data-name="图层 1" xmlns="http://www.w3.org/2000/svg" viewBox="0 0 522.89 522.89"><defs><style>.cls-1{fill:#ea5514;}</style></defs><path class="cls-1" d="M275,129.26h73v73H275ZM100.27,230.51l51.62-51.63,51.63,51.63L151.9,282.13ZM48.45,352.63h73v73h-73Zm49.64,196,51.62-51.62,51.62,51.62L149.71,600.3Zm173.73,30.47h73v73h-73Zm144.44-28.29,51.62-51.62,51.62,51.62-51.62,51.62Zm82.08-195.09h73v73h-73Zm-79.94-123L470,181.11l51.62,51.62L470,284.35ZM311.23,243.24A147.2,147.2,0,1,0,458.4,390.47,147.16,147.16,0,0,0,311.23,243.24Z" transform="translate(-48.45 -129.26)"/></svg>